<?xml version="1.0" encoding="utf-8"?>
<svg viewBox="-5.952 -22.26 1379.772 788.32" width="1654.213" height="1654.226" xmlns="http://www.w3.org/2000/svg" xmlns:xlink="http://www.w3.org/1999/xlink" xmlns:bx="https://boxy-svg.com">
  <g style="">
    <path d="M 693.89 0 L 693.89 107.15 C 381.69 111.08 129.82 365.4 129.82 678.53 L 22.68 678.53 C 22.68 306.23 322.52 4 693.89 0 Z" opacity=".2" style="fill: rgb(216, 197, 175);"/>
    <path d="M 1373.82 678.53 L 1266.68 678.53 C 1266.68 365.4 1014.81 111.08 702.61 107.15 L 702.61 0 C 1074 4 1373.82 306.23 1373.82 678.53 L 1373.82 678.53 Z" opacity=".2" style="fill: rgb(216, 197, 175);"/>
    <path d="M 23.01 697.46 L 130.15 697.46 L 130.15 766.06 L 23.01 766.06 L 23.01 697.46 Z M 150.15 731.8 L 130.15 756.8 L 130.15 706.8 L 150.15 731.8 Z" opacity=".2" style="fill: rgb(216, 197, 175);"/>
    <text style="font-family: K2D; font-size: 20px; font-weight: 500; letter-spacing: 1px; text-anchor: middle; text-transform: capitalize; white-space: pre;" x="78.206" y="741.255">AFVENT</text>
  </g>
  <g style="">
    <path d="M 693.89 107.15 L 693.89 250 C 460.59 254 272.68 444.3 272.68 678.53 L 129.82 678.53 C 129.82 365.4 381.69 111.08 693.89 107.15 L 693.89 107.15 Z" style="opacity: 0.4; fill: rgb(216, 197, 175);"/>
    <path d="M 1266.68 678.53 L 1123.82 678.53 C 1123.82 444.3 935.91 254 702.61 250 L 702.61 107.15 C 1014.81 111.08 1266.68 365.4 1266.68 678.53 Z" style="opacity: 0.4; fill: rgb(216, 197, 175);"/>
    <path d="M 130.15 697.46 L 273.01 697.46 L 273.01 766.06 L 130.15 766.06 L 130.15 756.8 L 150.15 731.8 L 130.15 706.8 L 130.15 697.46 Z M 293.01 731.8 L 273.01 706.8 L 273.01 756.8 L 293.01 731.8 Z" style="opacity: 0.4; fill: rgb(216, 197, 175);"/>
    <text style="font-family: K2D; font-size: 20px; font-weight: 500; letter-spacing: 1px; text-anchor: middle; text-transform: capitalize; white-space: pre;" x="211.58" y="741.255">HOLD ØJE</text>
  </g>
  <g style="visibility: hidden;">
    <text style="fill: rgb(51, 51, 51); font-family: K2D; font-size: 26px; font-weight: 600; letter-spacing: 0.8px; white-space: pre;" transform="matrix(-0.069756, -0.997565, 0.997565, -0.069756, 57.967594, 1409.657227)" x="45.275" y="150.184" bx:origin="-0.455 1.232"><textPath xlink:href="#path-3">TEKNOLOGIER TIL DATAINDSAMLING OG -BEHANDLING</textPath></text>
    <text style="fill: rgb(51, 51, 51); font-family: K2D; font-size: 26px; font-weight: 600; letter-spacing: 2.1px; word-spacing: 6.7px; white-space: pre;" transform="matrix(-0.017452, -0.999848, 0.999848, -0.017452, 51.254505, 1376.080444)" x="1058.97" y="42.441" bx:origin="-0.602 -0.394"><textPath xlink:href="#path-3">TEKNOLOGIER I PRODUKTER OG SERVICES</textPath></text>
  </g>
  <g style="">
    <path d="M 693.89 428.64 L 693.89 678.53 L 451.25 678.53 C 451.25 542.92 559.22 432.53 693.89 428.64 Z M 945.25 678.53 L 702.61 678.53 L 702.61 428.64 C 837.28 432.53 945.25 542.92 945.25 678.53 Z" style="fill: rgb(216, 197, 175);"/>
    <path d="M 451.24 697.46 L 693.89 697.46 L 693.89 766.06 L 451.24 766.06 L 451.24 756.8 L 471.24 731.8 L 451.24 706.8 L 451.24 697.46 Z" style="fill: rgb(216, 197, 175);"/>
    <text style="font-family: K2D; font-size: 20px; font-weight: 500; letter-spacing: 1px; paint-order: fill; text-anchor: middle; text-transform: capitalize; white-space: pre;" x="572.565" y="741.255">KLAR</text>
  </g>
  <g style="">
    <path d="M 693.89 250 L 693.89 428.64 C 559.22 432.53 451.25 542.92 451.25 678.53 L 272.68 678.53 C 272.68 444.3 460.59 254 693.89 250 Z" style="opacity: 0.6; fill: rgb(216, 197, 175);"/>
    <path d="M 1123.82 678.53 L 945.25 678.53 C 945.25 542.92 837.25 432.53 702.61 428.64 L 702.61 250 C 935.91 254 1123.82 444.3 1123.82 678.53 Z" style="opacity: 0.6; fill: rgb(216, 197, 175);"/>
    <path d="M 293.01 731.8 L 273.01 756.8 L 273.01 766.06 L 451.58 766.06 L 451.58 697.46 L 273.01 697.46 L 273.01 706.8 L 293.01 731.8 Z M 471.58 731.8 L 451.58 756.8 L 451.58 706.8 L 471.58 731.8 Z" style="stroke-width: 0px; stroke-opacity: 0; stroke: rgba(0, 0, 0, 0); opacity: 0.6; fill: rgb(216, 197, 175);"/>
    <text style="font-family: K2D; font-size: 20px; font-weight: 500; letter-spacing: 1px; paint-order: fill; text-anchor: middle; text-transform: capitalize; white-space: pre;" x="372.295" y="741.255">AFPRØV</text>
  </g>
</svg>